<svg width="150" height="60" viewBox="0 0 150 60" fill="none" xmlns="http://www.w3.org/2000/svg">
<path d="M31.7723 13.5886C31.3613 13.5695 30.9543 13.6766 30.6073 13.8954L28.9683 14.9252C28.62 15.1462 28.319 15.4329 28.0823 15.7687L23.0236 22.7144L19.1542 28.0277L8.58704 42.5369H16.3192L23.0169 33.3344L26.8863 28.0211L37.4025 13.582L31.7723 13.5886Z" fill="black"/>
<path d="M20.554 19.3228L16.6847 24.6362L9.26262 14.4455C9.20301 14.3646 9.16718 14.2689 9.1591 14.169C9.15102 14.0691 9.171 13.969 9.21684 13.8797C9.26268 13.7904 9.33258 13.7153 9.41884 13.6628C9.50509 13.6103 9.60433 13.5825 9.7056 13.5823H14.2594C14.6704 13.5631 15.0774 13.6703 15.4244 13.889L17.0634 14.9188C17.4117 15.1399 17.7127 15.4265 17.9494 15.7624L20.554 19.3228ZM47.4559 56.2685L29.3493 31.4087L26.8864 28.0257L23.017 22.7124L19.1476 28.0257L23.017 33.3456L25.4799 36.7286L38.7692 54.9604C39.0058 55.2963 39.3068 55.5829 39.6551 55.804L41.2941 56.8338C41.6411 57.0526 42.0481 57.1597 42.4591 57.1405H47.0151C47.1177 57.1412 47.2184 57.1134 47.3058 57.0603C47.3932 57.0072 47.4639 56.9309 47.5098 56.8402C47.5556 56.7494 47.5749 56.6478 47.5654 56.5467C47.5559 56.4457 47.5179 56.3493 47.4559 56.2685Z" fill="url(#paint0_linear_956_5388)"/>
<defs>
<linearGradient id="paint0_linear_956_5388" x1="9.15409" y1="35.3614" x2="47.5622" y2="35.3614" gradientUnits="userSpaceOnUse">
<stop stop-color="#4A3CD6"/>
<stop offset="0.1" stop-color="#503AD3"/>
<stop offset="0.23" stop-color="#6036C9"/>
<stop offset="0.37" stop-color="#7A2FBA"/>
<stop offset="0.53" stop-color="#A024A4"/>
<stop offset="0.69" stop-color="#CF1788"/>
<stop offset="0.84" stop-color="#FF0A6C"/>
<stop offset="1" stop-color="#FF609A"/>
</linearGradient>
</defs>
</svg>
